<svg width="24" height="24" viewBox="0 0 24 24" fill="none" xmlns="http://www.w3.org/2000/svg">
<path d="M19.251 13.25C18.6191 13.2493 18.0132 12.998 17.5663 12.5512C17.1194 12.1044 16.868 11.4986 16.8672 10.8667V8.25H3.36769C2.96159 8.24996 2.56513 8.12632 2.23101 7.8955C1.89689 7.66468 1.64095 7.33762 1.49721 6.95782C1.35347 6.57801 1.32874 6.16345 1.42632 5.76925C1.5239 5.37506 1.73915 5.0199 2.04347 4.751L5.59522 1.61279C5.91919 1.22241 6.35921 0.945526 6.85134 0.822376C7.34346 0.699225 7.86203 0.73623 8.33169 0.928011C8.80134 1.11979 9.19759 1.45635 9.46284 1.88878C9.7281 2.3212 9.84853 2.82696 9.80665 3.33252H17.8672C18.866 3.33364 19.8236 3.73087 20.5299 4.43708C21.2362 5.14329 21.6335 6.10082 21.6348 7.09961V10.8667C21.634 11.4986 21.3825 12.1044 20.9357 12.5512C20.4888 12.998 19.8829 13.2493 19.251 13.25ZM7.43116 2.75049C7.37149 2.75037 7.31262 2.76417 7.25923 2.79078C7.20583 2.8174 7.15937 2.8561 7.12355 2.90381C7.08285 2.95817 7.03671 3.00823 6.98585 3.05322L3.36769 6.25H16.8672C17.3974 6.25061 17.9058 6.46152 18.2807 6.83646C18.6557 7.2114 18.8666 7.71976 18.8672 8.25V10.8667C18.8672 10.9685 18.9076 11.0661 18.9796 11.1381C19.0516 11.2101 19.1492 11.2505 19.251 11.2505C19.3528 11.2505 19.4504 11.2101 19.5224 11.1381C19.5943 11.0661 19.6348 10.9685 19.6348 10.8667V7.09961C19.6342 6.63104 19.4478 6.18182 19.1164 5.85054C18.785 5.51925 18.3358 5.33295 17.8672 5.33252H8.26075C8.07499 5.33247 7.89292 5.28069 7.73493 5.183C7.57695 5.0853 7.44929 4.94554 7.36625 4.77937C7.28322 4.61321 7.2481 4.4272 7.26483 4.2422C7.28155 4.0572 7.34946 3.88051 7.46095 3.73193L7.7378 3.36328C7.78045 3.30636 7.80641 3.23868 7.81278 3.16783C7.81914 3.09698 7.80564 3.02576 7.77381 2.96214C7.74198 2.89853 7.69306 2.84504 7.63254 2.80765C7.57202 2.77027 7.50229 2.75048 7.43116 2.75049Z" fill="white"/>
<path d="M16.5645 23.2505C16.2352 23.2492 15.9098 23.1798 15.6086 23.0468C15.3074 22.9137 15.037 22.7198 14.8143 22.4772C14.5917 22.2347 14.4216 21.9487 14.3147 21.6373C14.2079 21.3258 14.1665 20.9957 14.1934 20.6675H6.13237C5.13368 20.6663 4.17623 20.269 3.47009 19.5628C2.76396 18.8566 2.3668 17.8991 2.36577 16.9004V13.1333C2.36577 12.5012 2.61687 11.895 3.06382 11.4481C3.51078 11.0011 4.11698 10.75 4.74907 10.75C5.38116 10.75 5.98736 11.0011 6.43432 11.4481C6.88127 11.895 7.13237 12.5012 7.13237 13.1333V15.75H20.6328C21.0389 15.75 21.4353 15.8737 21.7694 16.1044C22.1034 16.3352 22.3594 16.6622 22.5031 17.042C22.6468 17.4217 22.6716 17.8362 22.574 18.2304C22.4765 18.6245 22.2613 18.9797 21.957 19.2485L18.4043 22.3867C18.0278 22.8444 17.4932 23.1439 16.9063 23.2261C16.7931 23.2422 16.6788 23.2503 16.5645 23.2505ZM4.74901 12.75C4.64738 12.7501 4.54994 12.7905 4.47808 12.8624C4.40621 12.9342 4.3658 13.0317 4.36571 13.1333V16.9004C4.36613 17.3688 4.55238 17.818 4.88357 18.1493C5.21477 18.4806 5.66386 18.6669 6.13231 18.6675H15.7392C15.9249 18.6674 16.107 18.7191 16.265 18.8167C16.423 18.9143 16.5506 19.0539 16.6337 19.22C16.7167 19.3861 16.7519 19.5721 16.7351 19.757C16.7184 19.9419 16.6505 20.1186 16.539 20.2671L16.2627 20.6357C16.2017 20.7175 16.1754 20.8199 16.1894 20.9209C16.1966 20.9707 16.2134 21.0185 16.2391 21.0618C16.2647 21.105 16.2986 21.1428 16.3389 21.1729C16.4204 21.2335 16.5224 21.2598 16.623 21.2461C16.6728 21.2392 16.7208 21.2224 16.764 21.1967C16.8073 21.1711 16.845 21.1371 16.875 21.0967C16.9161 21.0422 16.9625 20.992 17.0137 20.9468L20.6328 17.75H7.13233C6.60206 17.7495 6.09366 17.5386 5.7187 17.1636C5.34374 16.7887 5.13286 16.2803 5.13233 15.75V13.1333C5.13224 13.0317 5.09182 12.9342 5.01996 12.8624C4.94809 12.7905 4.85064 12.7501 4.74901 12.75Z" fill="white"/>
</svg>
